#!OML:ASF X:\für Bonn\!DataBase\2005_08_12_Daniel\c3d\Daniel.ASF
:FULLY-SPECIFIED
:DEGREES
32
root 2.81706 16.6935 -8.10347 -1084.95 34.1748 7.67981
lowerback 34.1773 -1.47349 -5.57486
upperback 12.3663 -3.29724 -3.54925
thorax -3.63117 -1.41433 0.287735
lowerneck 5.62437 2.26554 -6.18732
upperneck 15.4661 2.53538 4.64673
head 3.97958 1.12687 2.70711
rclavicle 5.32743e-014 -5.08889e-014
rhumerus -32.5245 -4.11237 -85.5202
rradius 33.2696
rwrist 10.3943
rhand -14.9893 -343.117
rfingers 7.12502
rthumb 11.1751 -372.799
lclavicle 5.32743e-014 -5.08889e-014
lhumerus -734.204 8.86064 -643.45
lradius 40.8118
lwrist -10.6305
lhand -18.1001 354.978
lfingers 7.12502
lthumb 8.17374 384.8
rfemur 333.433 -15.0386 377.709
rtibia 30.3325
rfoot -16.1564 -7.67885
rtoes 7.01555
lfemur 0.782403 10.4178 -18.6579
ltibia 44.5954
lfoot -26.4514 -8.15233
ltoes -0.879682
33
root 2.8897 16.6532 -8.02772 -1084.93 33.6737 7.88585
lowerback 34.4555 -1.46882 -5.58636
upperback 12.4844 -3.30517 -3.57295
thorax -3.60242 -1.41698 0.272969
lowerneck 5.68901 2.27926 -6.07396
upperneck 15.2933 2.57254 4.43241
head 3.90438 1.14334 2.60554
rclavicle -3.49861e-014 7.95139e-016
rhumerus -32.3158 -4.04956 -85.4954
rradius 33.3139
rwrist 10.6244
rhand -14.7856 -343.262
rfingers 7.12502
rthumb 11.3715 -372.934
lclavicle -3.49861e-014 7.95139e-016
lhumerus -733.949 8.26348 -643.283
lradius 41.5517
lwrist -10.3413
lhand -18.0865 355.185
lfingers 7.12502
lthumb 8.18684 385.007
rfemur 333.318 -14.257 377.341
rtibia 29.2524
rfoot -17.1068 -9.09852
rtoes 6.43385
lfemur 1.44029 10.5719 -18.8848
ltibia 44.5047
lfoot -26.9971 -7.96058
ltoes -1.09044
34
root 2.96107 16.6104 -7.95005 -1084.91 33.2103 8.067
lowerback 34.7251 -1.48378 -5.51481
upperback 12.6039 -3.3123 -3.63085
thorax -3.57666 -1.41522 0.179123
lowerneck 5.78601 2.27192 -5.887
upperneck 15.1167 2.57994 4.23449
head 3.82424 1.14986 2.49586
rclavicle -5.52621e-014 4.09496e-014
rhumerus -32.1998 -4.15637 -85.5179
rradius 33.4105
rwrist 10.9438
rhand -14.6551 -343.398
rfingers 7.12502
rthumb 11.4974 -373.062
lclavicle -5.52621e-014 4.09496e-014
lhumerus -733.703 7.65887 -643.159
lradius 42.2926
lwrist -10.1255
lhand -18.052 355.325
lfingers 7.12502
lthumb 8.22018 385.145
rfemur 333.203 -13.411 376.912
rtibia 28.3435
rfoot -18.0029 -10.3114
rtoes 7.2301
lfemur 2.09288 10.7126 -19.0772
ltibia 44.4361
lfoot -27.56 -7.83769
ltoes -1.36439
35
root 3.03198 16.5644 -7.87079 -1084.88 32.7672 8.22156
lowerback 34.9552 -1.50177 -5.4013
upperback 12.7397 -3.30382 -3.66793
thorax -3.52086 -1.4062 0.0791274
lowerneck 5.75911 2.23959 -5.77448
upperneck 15.0268 2.55546 4.07432
head 3.79985 1.13835 2.41811
rclavicle -3.97569e-016 -2.22639e-014
rhumerus -32.0646 -4.43875 -85.4878
rradius 33.4657
rwrist 11.4117
rhand -14.6042 -343.441
rfingers 7.12502
rthumb 11.5465 -373.103
lclavicle -3.97569e-016 -2.22639e-014
lhumerus -733.406 7.00848 -643.003
lradius 43.0233
lwrist -9.82496
lhand -17.9738 355.424
lfingers 7.12502
lthumb 8.29558 385.241
rfemur 333.027 -12.6184 376.488
rtibia 27.6361
rfoot -18.7789 -11.4072
rtoes 8.50812
lfemur 2.69436 10.8789 -19.2362
ltibia 44.4044
lfoot -28.1354 -7.73856
ltoes -1.69791
36
root 3.10112 16.5181 -7.78907 -1084.86 32.3894 8.37814
lowerback 35.2 -1.54361 -5.28874
upperback 12.8734 -3.32489 -3.70234
thorax -3.47068 -1.41088 -0.0076909
lowerneck 5.79937 2.22099 -5.60821
upperneck 14.9027 2.55132 3.87083
head 3.75026 1.13806 2.31388
rclavicle -4.69132e-014 6.0033e-014
rhumerus -31.9577 -4.61215 -85.4942
rradius 33.5437
rwrist 11.7422
rhand -14.666 -343.489
rfingers 7.12502
rthumb 11.4868 -373.154
lclavicle -4.69132e-014 6.0033e-014
lhumerus -733.142 6.42452 -642.878
lradius 43.7512
lwrist -9.58079
lhand -17.793 355.446
lfingers 7.12502
lthumb 8.47014 385.256
rfemur 332.815 -11.8703 376.054
rtibia 27.1488
rfoot -19.3409 -12.5066
rtoes 9.65823
lfemur 3.27663 11.0173 -19.3806
ltibia 44.4106
lfoot -28.6758 -7.69392
ltoes -1.9513
37
root 3.16878 16.4717 -7.70406 -1084.84 32.0722 8.50242
lowerback 35.4386 -1.60923 -5.12428
upperback 13.0098 -3.35636 -3.72978
thorax -3.41803 -1.41886 -0.110751
lowerneck 5.86186 2.19069 -5.48641
upperneck 14.7547 2.52539 3.70808
head 3.68884 1.12634 2.23099
rclavicle 5.76476e-014 -3.97569e-016
rhumerus -31.8632 -4.84737 -85.4921
rradius 33.6106
rwrist 12.0609
rhand -14.7279 -343.487
rfingers 7.12502
rthumb 11.4272 -373.156
lclavicle 5.76476e-014 -3.97569e-016
lhumerus -732.9 5.82215 -642.743
lradius 44.4524
lwrist -9.30587
lhand -17.69 355.382
lfingers 7.12502
lthumb 8.56951 385.188
rfemur 332.548 -11.2603 375.672
rtibia 26.9215
rfoot -19.7549 -13.5075
rtoes 11.0328
lfemur 3.82723 11.1281 -19.4827
ltibia 44.4633
lfoot -29.1981 -7.63108
ltoes -2.2371
38
root 3.23533 16.4274 -7.61541 -1084.82 31.8432 8.58998
lowerback 35.6523 -1.71275 -4.91188
upperback 13.1579 -3.41377 -3.74041
thorax -3.34551 -1.43853 -0.213105
lowerneck 5.87409 2.15015 -5.38824
upperneck 14.6441 2.48804 3.54555
head 3.65069 1.10789 2.15468
rclavicle 4.09496e-014 8.34896e-015
rhumerus -31.7456 -4.97156 -85.5045
rradius 33.647
rwrist 12.2366
rhand -14.9031 -343.461
rfingers 7.12502
rthumb 11.2582 -373.139
lclavicle 4.09496e-014 8.34896e-015
lhumerus -732.646 5.25066 -642.602
lradius 45.1158
lwrist -8.98525
lhand -17.5304 355.226
lfingers 7.12502
lthumb 8.72354 385.025
rfemur 332.202 -10.9346 375.386
rtibia 26.9775
rfoot -19.9099 -14.3542
rtoes 12.3498
lfemur 4.30573 11.2238 -19.5257
ltibia 44.5874
lfoot -29.6689 -7.6895
ltoes -2.56278
39
root 3.3004 16.382 -7.52299 -1084.81 31.6629 8.63723
lowerback 35.9026 -1.82314 -4.6843
upperback 13.2693 -3.4754 -3.69628
thorax -3.32222 -1.4604 -0.263075
lowerneck 5.8974 2.11999 -5.42067
upperneck 14.5501 2.45523 3.43946
head 3.61529 1.08684 2.12153
rclavicle -2.32578e-014 -2.5842e-014
rhumerus -31.6927 -4.97897 -85.4534
rradius 33.6896
rwrist 12.3146
rhand -15.1064 -343.409
rfingers 7.12502
rthumb 11.0622 -373.098
lclavicle -2.32578e-014 -2.5842e-014
lhumerus -732.463 4.72153 -642.404
lradius 45.7638
lwrist -8.70101
lhand -17.4053 354.979
lfingers 7.12502
lthumb 8.84426 384.774
rfemur 331.757 -10.7373 375.169
rtibia 27.3378
rfoot -19.9635 -15.0832
rtoes 13.6618
lfemur 4.71363 11.3874 -19.4654
ltibia 44.8027
lfoot -30.069 -7.85516
ltoes -2.71131
40
root 3.36352 16.3349 -7.42633 -1084.8 31.5899 8.65018
lowerback 36.1732 -1.96059 -4.43269
upperback 13.3496 -3.55925 -3.58043
thorax -3.33543 -1.49388 -0.241848
lowerneck 5.91247 2.08504 -5.5799
upperneck 14.4986 2.41451 3.32843
head 3.59671 1.05533 2.11067
rclavicle 9.54166e-014 -4.77083e-014
rhumerus -31.6619 -4.87284 -85.327
rradius 33.707
rwrist 12.2604
rhand -15.3709 -343.332
rfingers 7.12502
rthumb 10.807 -373.034
lclavicle 9.54166e-014 -4.77083e-014
lhumerus -732.32 4.29945 -642.105
lradius 46.3611
lwrist -8.5113
lhand -17.2495 354.668
lfingers 7.12502
lthumb 8.99463 384.456
rfemur 331.215 -10.6931 375.006
rtibia 27.9954
rfoot -19.9108 -15.7793
rtoes 15.5092
lfemur 5.00353 11.5261 -19.3382
ltibia 45.1385
lfoot -30.416 -8.07707
ltoes -2.82168
41
root 3.42556 16.2869 -7.32588 -1084.8 31.5874 8.65023
lowerback 36.4501 -2.16037 -4.12351
upperback 13.4797 -3.69658 -3.51582
thorax -3.30283 -1.54901 -0.286699
lowerneck 5.80133 2.06107 -5.73585
upperneck 14.454 2.38841 3.27833
head 3.60243 1.03337 2.12265
rclavicle -6.81831e-014 1.43125e-014
rhumerus -31.5663 -4.7393 -85.3016
rradius 33.7335
rwrist 12.1048
rhand -15.6197 -343.187
rfingers 7.12502
rthumb 10.567 -372.902
lclavicle -6.81831e-014 1.43125e-014
lhumerus -732.12 3.87327 -641.895
lradius 46.9247
lwrist -8.27601
lhand -17.083 354.381
lfingers 7.12502
lthumb 9.15525 384.162
rfemur 330.615 -10.8207 374.882
rtibia 28.9354
rfoot -19.7499 -16.4081
rtoes 17.4509
lfemur 5.24379 11.6234 -19.1647
ltibia 45.6015
lfoot -30.7134 -8.35017
ltoes -2.85332
42
root 3.4863 16.2378 -7.22502 -1084.84 31.5887 8.57425
lowerback 36.8614 -2.39704 -3.74008
upperback 13.5024 -3.8649 -3.46247
thorax -3.30042 -1.61186 -0.397265
lowerneck 5.58435 2.04013 -5.80661
upperneck 14.4839 2.37766 3.19948
head 3.65382 1.02184 2.11331
rclavicle -3.3197e-014 2.64384e-014
rhumerus -31.4205 -4.55866 -85.3568
rradius 33.7215
rwrist 11.8953
rhand -15.8437 -343.115
rfingers 7.12502
rthumb 10.3509 -372.84
lclavicle -3.3197e-014 2.64384e-014
lhumerus -731.943 3.43827 -641.803
lradius 47.4571
lwrist -8.00932
lhand -16.8956 354.064
lfingers 7.12502
lthumb 9.33608 383.837
rfemur 329.94 -11.068 374.892
rtibia 30.0954
rfoot -19.3643 -16.9343
rtoes 19.2282
lfemur 5.39401 11.6033 -18.9568
ltibia 46.2068
lfoot -31.0828 -8.55656
ltoes -2.83064
43
root 3.54535 16.1865 -7.12839 -1084.89 31.519 8.47429
lowerback 37.2643 -2.63001 -3.33797
upperback 13.6012 -4.01671 -3.43697
thorax -3.3529 -1.66645 -0.519072
lowerneck 5.34115 2.02604 -5.86458
upperneck 14.5151 2.37998 3.10231
head 3.7102 1.01661 2.09602
rclavicle -2.5842e-014 5.08889e-014
rhumerus -31.3008 -4.31571 -85.4251
rradius 33.7458
rwrist 11.586
rhand -16.0678 -342.987
rfingers 7.12502
rthumb 10.1347 -372.723
lclavicle -2.5842e-014 5.08889e-014
lhumerus -731.79 3.07824 -641.725
lradius 47.9607
lwrist -7.81725
lhand -16.7158 353.838
lfingers 7.12502
lthumb 9.50957 383.603
rfemur 329.216 -11.4074 375.001
rtibia 31.4269
rfoot -18.8151 -17.1816
rtoes 20.3935
lfemur 5.45574 11.5891 -18.7368
ltibia 46.9613
lfoot -31.494 -8.71656
ltoes -2.99341
44
root 3.60421 16.1339 -7.03484 -1084.99 31.3696 8.30577
lowerback 37.7292 -2.86045 -2.89133
upperback 13.6911 -4.14986 -3.41732
thorax -3.43812 -1.70937 -0.673122
lowerneck 5.04734 2.01956 -5.91533
upperneck 14.5582 2.39502 3.01288
head 3.77972 1.01799 2.08145
rclavicle -7.07673e-014 -5.56597e-015
rhumerus -31.1497 -4.10342 -85.5086
rradius 33.7774
rwrist 11.3085
rhand -16.1731 -342.862
rfingers 7.12502
rthumb 10.0332 -372.603
lclavicle -7.07673e-014 -5.56597e-015
lhumerus -731.709 2.71095 -641.694
lradius 48.4853
lwrist -7.64469
lhand -16.5621 353.602
lfingers 7.12502
lthumb 9.65788 383.361
rfemur 328.472 -11.796 375.23
rtibia 32.85
rfoot -18.0465 -17.2376
rtoes 21.3463
lfemur 5.43038 11.6606 -18.4197
ltibia 47.8865
lfoot -31.842 -8.88302
ltoes -3.15213
45
root 3.66172 16.0793 -6.9414 -1085.15 31.1349 8.05823
lowerback 38.268 -3.07734 -2.43241
upperback 13.7534 -4.26144 -3.38703
thorax -3.57545 -1.74128 -0.825642
lowerneck 4.76189 2.03241 -5.93617
upperneck 14.625 2.44067 2.88221
head 3.85542 1.03386 2.04814
rclavicle 6.0033e-014 1.03368e-014
rhumerus -31.0718 -3.84414 -85.5953
rradius 33.8858
rwrist 11.0735
rhand -16.2152 -342.801
rfingers 7.12502
rthumb 9.99253 -372.543
lclavicle 6.0033e-014 1.03368e-014
lhumerus -731.688 2.33581 -641.713
lradius 48.9915
lwrist -7.47282
lhand -16.4233 353.538
lfingers 7.12502
lthumb 9.79177 383.291
rfemur 327.731 -12.1345 375.575
rtibia 34.307
rfoot -17.0157 -17.3186
rtoes 22.4469
lfemur 5.33006 11.8315 -17.9725
ltibia 49.0035
lfoot -32.0084 -9.16344
ltoes -3.24558
46
root 3.71833 16.0237 -6.85004 -1085.35 30.8535 7.7326
lowerback 38.8678 -3.29389 -1.92258
upperback 13.8038 -4.34986 -3.34711
thorax -3.74498 -1.76017 -0.998899
lowerneck 4.50721 2.03728 -5.94328
upperneck 14.6405 2.47453 2.74695
head 3.90791 1.04478 2.00901
rclavicle 2.18663e-015 4.37326e-015
rhumerus -30.9446 -3.65777 -85.6681
rradius 33.9564
rwrist 10.9603
rhand -16.2621 -342.732
rfingers 7.12502
rthumb 9.94726 -372.477
lclavicle 2.18663e-015 4.37326e-015
lhumerus -731.703 1.96945 -641.731
lradius 49.5044
lwrist -7.32367
lhand -16.2751 353.574
lfingers 7.12502
lthumb 9.93476 383.319
rfemur 327.004 -12.4869 376.016
rtibia 35.7424
rfoot -15.9354 -17.2885
rtoes 23.2928
lfemur 5.08613 12.0493 -17.428
ltibia 50.3579
lfoot -31.897 -9.4672
ltoes -3.32631
